<svg width="101" height="32" viewBox="0 0 101 32" fill="none" xmlns="http://www.w3.org/2000/svg">
<g clip-path="url(#clip0_1_199)">
<g clip-path="url(#clip1_1_199)">
<path fill-rule="evenodd" clip-rule="evenodd" d="M16.169 21.5138H11.8566C5.13037 21.5138 10.0173 7.22689 15.68 7.22689H22.4938C23.5855 7.22689 25.5118 7.42827 26.4607 4.7262L27.9262 0.528961H18.5835C13.5242 0.528961 9.58554 2.31103 6.74003 5.30137C1.82416 10.4172 0.156576 18.409 1.33451 22.2317C2.45589 25.7683 5.50278 28.0965 10.2752 28.1538L13.9835 28.1828H18.5545L19.6752 24.8193C20.5097 22.4331 18.6414 21.5138 16.169 21.5138ZM68.6607 15.5924L70.069 11.0214H55.0345C52.5331 11.0214 51.4124 11.711 50.9814 13.149L49.5724 17.7193H64.6069C67.1083 17.7193 68.229 17.0297 68.6607 15.5924ZM47.3297 23.6414L45.9214 28.2124H60.9559C63.4283 28.2124 64.5786 27.5228 65.0097 26.0848L66.418 21.5145H51.3835C48.9111 21.5145 47.7897 22.2041 47.3297 23.6414ZM72.169 5.12827L73.578 0.557237H58.5435C56.0421 0.557237 54.9207 1.24689 54.4897 2.68482L53.0793 7.25586H68.1138C70.5869 7.25586 71.7076 6.5662 72.1676 5.12827M49.4573 6.04827C48.8255 1.7931 46.5552 0.557237 41.0352 0.557237H30.9731L25.1097 17.7193H28.818C31.0317 17.7193 32.1524 17.7483 33.3311 14.5862L35.7745 7.22689H39.5117C42.7028 7.22689 41.9842 11.2228 40.3738 15.1034C38.9366 18.5241 36.4359 21.5428 33.4173 21.5428H27.1793C24.678 21.5428 23.5283 22.2324 23.0683 23.6703L21.5159 28.2407H26.0869L30.5711 28.2124C34.5386 28.1834 37.7869 27.8959 41.5814 24.4752C45.6062 20.8241 50.2621 11.4524 49.4573 6.04827ZM99.9966 0.528961H91.2862L83.0931 9.23931C82.1442 10.2455 81.1669 11.2517 80.218 12.4303H80.1318L84.2131 0.528961H77.1131L67.5407 28.2117H74.6407L77.6876 19.5014L80.8497 16.8283L83.3511 24.7048C84.1269 27.149 84.9324 28.2124 86.6573 28.2124H92.0904L86.5131 12.7462L99.9966 0.528961Z" fill="black" fill-opacity="0.3"/>
</g>
</g>
<defs>
<clipPath id="clip0_1_199">
<rect width="100" height="31" fill="white" transform="translate(0.5 0.5)"/>
</clipPath>
<clipPath id="clip1_1_199">
<rect width="100" height="28.2759" fill="white" transform="translate(0.5 0.5)"/>
</clipPath>
</defs>
</svg>
